<svg xmlns="http://www.w3.org/2000/svg" width="64" height="64" viewBox="0 0 64 64" aria-label="OCC Certified">
  <defs>
    <linearGradient id="g" x1="0" y1="0" x2="1" y2="1">
      <stop offset="0" stop-color="#1E3A8A"/>
      <stop offset="1" stop-color="#059669"/>
    </linearGradient>
  </defs>
  <circle cx="32" cy="32" r="30" fill="url(#g)" />
  <circle cx="32" cy="32" r="22" fill="#ffffff" opacity="0.92" />
  <path d="M32 18a14 14 0 1 0 0 28 14 14 0 0 0 0-28zm0 4a10 10 0 1 1 0 20 10 10 0 0 1 0-20z" fill="#1E3A8A"/>
  <path d="M26 32c0-3.3 2.7-6 6-6" fill="none" stroke="#059669" stroke-width="3" stroke-linecap="round"/>
  <path d="M32 26c3.3 0 6 2.7 6 6" fill="none" stroke="#059669" stroke-width="3" stroke-linecap="round"/>
</svg>


