<svg xmlns="http://www.w3.org/2000/svg" width="512" height="512" viewBox="0 0 512 512" role="img" aria-label="AS Accounting monogram">
  <defs>
    <style>
      .bg{fill:#1E3A8A}
      .glyph{fill:#FFFFFF}
      .accent{fill:#059669}
    </style>
  </defs>
  <rect class="bg" x="0" y="0" width="512" height="512" rx="96" ry="96"/>
  <!-- Geometric "A" built from a triangle and crossbar -->
  <path class="glyph" d="M256 106 L142 384 h60 l26-66 h100 l26 66 h60 L300 106 h-44zm7 150 h-50 l25-65 25 65z"/>
  <!-- Stylized "S" ribbon wrapping the A (accent stroke behind for depth) -->
  <path class="accent" opacity="0.18" d="M370 168c-22-22-58-34-96-34-46 0-76 14-92 34-6 8-1 18 9 18h42c13-8 27-12 41-12 14 0 27 4 36 12 8 7 12 15 12 23 0 9-4 17-12 23-18 14-47 14-78 19-31 5-62 14-80 33-12 12-18 28-18 46 0 20 9 39 25 55 24 24 61 36 99 36 40 0 71-13 91-32 7-7 2-19-8-19h-44c-13 8-28 11-44 11-18 0-36-5-48-16-9-8-14-18-14-28 0-9 4-18 12-24 18-14 48-14 79-19 31-5 62-14 80-33 12-12 18-28 18-46 0-20-9-39-25-55z"/>
  <path class="glyph" d="M368 170c-21-20-55-32-92-32-17 0-34 3-50 8-4 1-5 7-1 9 12 7 21 17 26 29 1 3 5 4 8 3 5-1 10-1 16-1 14 0 27 4 36 12 8 7 12 15 12 23 0 9-4 17-12 23-18 14-47 14-78 19-31 5-62 14-80 33-12 12-18 28-18 46 0 20 9 39 25 55 21 21 53 33 87 36 4 0 7-3 6-7-1-8 1-16 4-24 1-2 0-5-2-6-11-6-19-15-24-25-3-6-4-12-4-18 0-9 4-18 12-24 18-14 48-14 79-19 31-5 62-14 80-33 12-12 18-28 18-46 0-20-9-39-25-55z"/>
</svg>


